<svg width="206" height="281" viewBox="0 0 206 281" fill="none" xmlns="http://www.w3.org/2000/svg">
<path d="M71.0962 136.805L71.0994 136.705C70.8582 136.345 70.6658 136.037 70.6202 135.884C67.8281 131.516 64.5214 127.434 61.3679 123.306C59.9141 121.347 58.4082 119.436 56.7998 117.572C56.0208 116.641 55.1913 115.709 54.3602 114.827C53.3825 113.789 52.6981 113.062 52.3038 112.747C51.3196 111.911 50.3355 111.074 49.2992 110.286C48.8544 109.969 48.4585 109.705 48.0137 109.389C47.766 109.23 47.5184 109.071 47.2707 108.912C46.3258 108.429 45.3256 108.095 44.3254 107.761C44.2244 107.758 44.1755 107.706 44.0761 107.652C43.9751 107.649 43.9246 107.647 43.7732 107.642C43.1672 107.623 42.615 107.505 42.0091 107.485C38.4241 107.371 35.7122 103.66 36.0233 100.247C36.3946 96.5336 39.7049 94.1727 43.2898 94.2872C51.8736 94.5613 58.8766 100.02 64.691 106.297C63.5981 99.3655 63.0623 92.4016 63.6422 85.3224C64.368 76.8383 77.5699 78.1156 76.8945 86.6013C75.7332 100.81 79.7382 114.681 82.9369 128.475C86.5144 119.327 91.8383 110.889 94.5686 101.361C95.5883 97.9205 99.9853 96.3493 103.131 97.5572C106.676 98.9289 107.971 102.695 106.953 106.086C103.943 116.46 97.8405 125.528 94.3807 135.737C92.5947 141.016 92.5813 150.932 92.8022 156.678C92.8534 158.24 94.2303 159.442 95.8493 159.393C98.8869 159.238 101.975 159.085 105.009 159.031C105.868 159.058 106.636 158.73 107.262 158.146C111.164 154.646 120.966 143.684 125.031 136.665C131.108 125.231 136.73 112.222 142.009 98.8491C159.779 53.6081 126.682 9.00805 79.6245 1.11232C31.4611 -6.96974 -1.86639 30.0222 0.424639 78.5718C1.95437 111.391 58.8767 153.832 73.2765 160.333C74.5227 160.876 75.8693 159.862 75.5592 158.493C74.0216 151.245 72.5849 144.001 71.0473 136.754L71.0962 136.805Z" fill="#A2BE52"/>
<path d="M193.3 28.7903C182.965 13.4709 169.965 3.56393 143.016 1.54234C140.125 1.32541 129.542 0.869071 124.826 2.21628C119.506 3.73589 114.662 6.01904 117.415 9.62716L126.173 17.038L130.216 20.4066C130.216 20.4066 132.237 22.4278 132.91 22.4278C137.626 24.4489 154.469 13.6695 175.355 36.5758C184.544 48.7159 189.52 66.1747 182.734 88.1707C173.559 117.89 146.206 132.856 135.663 134.377C134.244 134.572 132.962 135.446 132.226 136.782C130.024 140.51 125.897 146.844 122.347 152.177C119.738 156.065 122.541 161.067 126.847 160.54C159.727 156.51 195.938 122.932 202.85 92.6568C208.257 68.9975 204.762 45.7114 193.35 28.7914L193.3 28.7903Z" fill="#5A8C32"/>
<path d="M38.5592 252.234C39.9079 249.359 40.692 246.109 40.8802 242.452C41.0684 238.796 40.8802 235.546 40.3784 232.671C39.8452 229.796 39.2492 226.702 38.6219 223.389C37.9946 220.076 37.6495 217.608 37.6495 216.045C37.6495 212.264 38.716 209.232 40.8802 206.888C43.0445 204.545 45.8674 203.388 49.349 203.388C53.0502 203.388 55.7163 204.545 57.3474 206.826C58.9784 209.139 59.7939 213.139 59.7939 218.858C59.7939 225.952 57.4728 234.296 52.7993 243.921C48.1571 253.546 42.1349 262.016 34.7639 269.297C27.3929 276.61 20.3983 280.266 13.8114 280.266C6.4718 280.266 2.45696 277.391 1.76691 271.672C1.39051 268.797 2.01783 266.516 3.64886 264.828C5.27989 263.141 7.63234 262.297 10.7376 262.297C12.6195 262.297 15.0033 262.609 17.8263 263.266C20.6806 263.891 22.688 264.234 23.9113 264.234C25.95 264.234 27.9261 263.641 29.8081 262.422C30.1844 262.203 30.404 261.953 30.4981 261.734C30.5608 261.515 30.4981 261.328 30.3413 261.172C30.1531 261.015 29.8394 260.953 29.3689 260.953C24.664 260.578 20.461 258.828 16.7598 255.703C13.0586 252.578 10.5494 248.421 9.26337 243.202L3.71159 220.358C3.39793 219.139 2.77062 217.483 1.82964 215.389C0.888659 213.295 0.292706 211.514 0.0731442 210.076C-0.365979 206.388 1.17095 204.545 4.7153 204.545H20.3669C22.092 204.545 23.378 204.795 24.1622 205.295C24.9463 205.795 25.5109 206.701 25.7932 208.076L36.9281 252.078C37.3045 253.671 37.8377 253.734 38.5278 252.296L38.5592 252.234Z" fill="#E6645C"/>
<path d="M72.4953 211.107C78.0306 205.972 85.4215 203.388 94.6994 203.388C103.977 203.388 111.368 205.972 116.904 211.107C122.439 216.242 125.207 223.432 125.207 232.675C125.207 241.919 122.439 249.108 116.904 254.243C111.368 259.379 103.977 261.962 94.6994 261.962C85.4215 261.962 78.0306 259.379 72.4953 254.243C66.96 249.108 64.1923 241.919 64.1923 232.675C64.1923 223.432 66.96 216.242 72.4953 211.107ZM100.486 257.574C101.776 257.262 102.594 256.049 102.939 253.901C103.285 251.754 103.254 248.89 102.814 245.28C102.405 241.67 101.587 237.063 100.361 231.43C98.4735 222.716 96.6494 216.46 94.8881 212.663C93.1269 208.866 91.1455 207.248 88.8496 207.777C84.9183 208.679 84.8554 217.425 88.7238 234.013C90.7681 242.79 92.6551 249.046 94.4164 252.718C96.1461 256.391 98.159 258.009 100.455 257.574H100.486Z" fill="#E6645C"/>
<path d="M154.527 223.325C154.745 210.044 158.982 203.388 167.269 203.388C172.596 203.388 175.493 206.716 175.96 213.403C176.023 215.052 175.898 216.576 175.524 217.975C175.15 219.375 174.714 220.526 174.216 221.459C173.717 222.392 172.876 223.232 171.692 223.978C170.477 224.725 169.543 225.316 168.826 225.72C168.11 226.124 166.864 226.56 165.119 226.964C163.343 227.368 162.097 227.648 161.412 227.804C160.695 227.959 159.356 228.177 157.362 228.426C155.368 228.675 154.153 228.861 153.686 228.924V246.808C153.686 247.492 153.935 248.736 154.434 250.571C154.932 252.406 155.181 253.681 155.181 254.334C155.181 256.138 154.434 257.662 152.969 258.875C151.505 260.12 149.73 260.742 147.611 260.742H137.237C135.119 260.742 133.343 260.12 131.879 258.875C130.415 257.631 129.667 256.107 129.667 254.334C129.667 253.65 129.916 252.406 130.415 250.571C130.913 248.736 131.162 247.461 131.162 246.808V220.588C131.162 219.842 130.913 218.535 130.384 216.7C129.854 214.865 129.605 213.497 129.605 212.595C129.605 210.635 130.197 209.08 131.412 207.867C132.627 206.654 134.215 205.877 136.272 205.503L145.524 203.917C151.007 203.015 153.748 205.721 153.748 212.035V223.17C153.748 223.698 153.904 223.978 154.184 224.009C154.496 224.04 154.652 223.792 154.652 223.263L154.527 223.325Z" fill="#E6645C"/>
<path d="M181.931 220.812C181.931 220.07 181.682 218.771 181.153 216.946C180.623 215.122 180.374 213.761 180.374 212.864C180.374 210.915 180.966 209.369 182.18 208.163C183.394 206.956 184.982 206.183 187.037 205.812L199.088 203.802C200.676 203.492 201.952 203.678 202.98 204.296C204.007 204.946 204.505 205.905 204.505 207.266V246.885C204.505 247.566 204.755 248.803 205.253 250.628C205.751 252.453 206 253.721 206 254.37C206 256.164 205.253 257.68 203.789 258.886C202.326 260.123 200.551 260.742 198.434 260.742H188.065C185.948 260.742 184.173 260.123 182.709 258.886C181.246 257.649 180.499 256.133 180.499 254.37C180.499 253.69 180.748 252.453 181.246 250.628C181.744 248.803 181.993 247.535 181.993 246.885V220.812H181.931ZM181.153 190.595C181.153 187.471 182.242 184.935 184.422 183.048C186.602 181.162 189.497 180.203 193.109 180.203C196.721 180.203 199.617 181.162 201.797 183.048C203.976 184.966 205.066 187.471 205.066 190.595C205.066 193.719 203.976 196.348 201.797 198.265C199.617 200.183 196.721 201.111 193.109 201.111C189.497 201.111 186.602 200.152 184.422 198.265C182.242 196.379 181.153 193.812 181.153 190.595Z" fill="#E6645C"/>
</svg>
