<svg width="191" height="150" viewBox="0 0 191 150" fill="none" xmlns="http://www.w3.org/2000/svg">
<path d="M65.8458 127.263L65.8488 127.17C65.6244 126.835 65.4454 126.548 65.403 126.406C62.8056 122.343 59.7296 118.545 56.796 114.706C55.4436 112.883 54.0428 111.106 52.5465 109.372C51.8219 108.506 51.0503 107.638 50.2771 106.818C49.3676 105.852 48.7309 105.176 48.3641 104.883C47.4486 104.105 46.5331 103.326 45.5691 102.593C45.1553 102.299 44.787 102.053 44.3732 101.759C44.1429 101.611 43.9125 101.463 43.6821 101.315C42.8031 100.866 41.8727 100.555 40.9422 100.245C40.8483 100.242 40.8028 100.193 40.7103 100.144C40.6164 100.141 40.5694 100.139 40.4285 100.135C39.8648 100.117 39.3512 100.006 38.7875 99.9885C35.4526 99.882 32.9297 96.4298 33.2192 93.2548C33.5646 89.8006 36.6439 87.6043 39.9789 87.7108C47.964 87.9658 54.4785 93.0439 59.8873 98.8828C58.8707 92.4349 58.3723 85.9568 58.9117 79.3713C59.5869 71.4789 71.8679 72.6672 71.2397 80.561C70.1594 93.7788 73.885 106.682 76.8606 119.514C80.1886 111.004 85.1411 103.155 87.6811 94.2915C88.6296 91.0907 92.7199 89.6291 95.6462 90.7528C98.9438 92.0288 100.148 95.5325 99.2014 98.6866C96.4012 108.337 90.7247 116.772 87.5062 126.269C85.8448 131.18 85.8324 140.405 86.0378 145.75C86.0855 147.203 87.3663 148.321 88.8724 148.275C91.6981 148.131 94.5708 147.989 97.3935 147.939C98.1921 147.964 98.9071 147.659 99.4887 147.116C103.119 143.86 112.237 133.662 116.019 127.133C121.672 116.496 126.901 104.394 131.812 91.9545C148.343 49.869 117.554 8.37976 73.7792 1.03474C28.9752 -6.48362 -2.02777 27.9282 0.103465 73.0915C1.5265 103.622 54.4786 143.103 67.874 149.15C69.0333 149.655 70.2859 148.712 69.9975 147.438C68.5671 140.696 67.2307 133.957 65.8003 127.215L65.8458 127.263Z" fill="#A2BE52"/>
<path d="M179.526 26.7823C169.912 12.5313 157.818 3.31535 132.75 1.43477C130.06 1.23297 120.215 0.808459 115.828 2.0617C110.879 3.47532 106.373 5.59923 108.934 8.95569L117.081 15.8497L120.842 18.9833C120.842 18.9833 122.722 20.8635 123.349 20.8635C127.736 22.7437 143.404 12.716 162.832 34.0247C171.381 45.318 176.01 61.5591 169.697 82.021C161.162 109.668 135.717 123.589 125.909 125.004C124.589 125.186 123.397 125.999 122.712 127.242C120.664 130.71 116.825 136.602 113.522 141.563C111.095 145.18 113.702 149.833 117.708 149.342C148.295 145.593 181.98 114.358 188.41 86.1942C193.44 64.1851 190.189 42.5231 179.573 26.7833L179.526 26.7823Z" fill="#5A8C32"/>
</svg>
