<svg width="185" height="145" viewBox="0 0 185 145" fill="none" xmlns="http://www.w3.org/2000/svg">
<path d="M65.7099 123.648V123.557C65.4819 123.239 65.2995 122.965 65.2539 122.829C62.6091 118.959 59.5083 115.363 56.5443 111.721C55.1763 109.991 53.7626 108.306 52.2578 106.667C51.5282 105.848 50.753 105.028 49.9778 104.254C49.0658 103.344 48.4274 102.706 48.0626 102.433C47.1506 101.705 46.2386 100.976 45.281 100.294C44.8706 100.02 44.5058 99.7928 44.0954 99.5196C43.8674 99.3831 43.6394 99.2465 43.4114 99.1099C42.545 98.7002 41.633 98.427 40.721 98.1539C40.6298 98.1539 40.5842 98.1083 40.493 98.0628C40.4018 98.0628 40.3562 98.0628 40.2194 98.0628C39.6722 98.0628 39.1706 97.9718 38.6234 97.9718C35.3858 97.9718 32.8322 94.6939 33.0146 91.5981C33.2426 88.2292 36.161 85.9984 39.3986 85.9984C47.1506 85.9984 53.6258 90.7331 59.0523 96.2418C57.8667 90.0047 57.1827 83.7221 57.5019 77.303C57.9123 69.6091 69.8595 70.3831 69.4947 78.0769C68.8563 90.9608 72.8691 103.389 76.1524 115.772C79.1164 107.396 83.6764 99.6107 85.8652 90.9152C86.686 87.7739 90.6076 86.2261 93.4804 87.2276C96.718 88.3658 97.9948 91.7347 97.174 94.8305C94.7572 104.3 89.5132 112.677 86.686 122.009C85.2268 126.835 85.5004 135.804 85.8652 140.994C85.9564 142.405 87.2332 143.452 88.6924 143.361C91.4284 143.133 94.21 142.906 96.946 142.769C97.7212 142.769 98.4053 142.451 98.9525 141.904C102.372 138.626 110.9 128.429 114.365 121.964C119.518 111.447 124.215 99.5196 128.593 87.2732C143.321 45.8446 112.177 6.46469 69.4947 0.682899C25.8097 -5.23547 -3.192 29.1821 0.273617 73.0236C2.59923 102.661 55.1763 139.4 68.3547 144.863C69.4947 145.319 70.6803 144.363 70.3611 143.133C68.7651 136.623 67.2603 130.113 65.6643 123.603L65.7099 123.648Z" fill="#282828"/>
<path d="M173.372 35.6013C163.75 23.4003 149.204 16.5714 132.332 16.3893C130.325 16.3893 127.133 16.2527 123.896 16.2072C120.02 16.2072 117.968 20.7143 120.521 23.5824L130.189 34.5542C131.009 35.4647 132.195 36.011 133.426 36.0565C144.37 36.4662 151.484 39.1978 158.187 46.8461C166.714 56.4976 170.682 65.876 164.982 83.7677C157.275 107.942 132.879 120.507 123.394 121.918C122.117 122.1 120.977 122.829 120.339 123.922C118.424 126.972 114.821 132.162 111.72 136.532C109.44 139.719 112.085 144.044 115.961 143.543C145.556 139.719 177.567 111.63 183.222 87.0455C187.645 67.8336 184.042 49.0769 173.418 35.6013H173.372Z" fill="#282828"/>
</svg>
